<svg width="24" height="25" viewBox="0 0 24 25" fill="none" xmlns="http://www.w3.org/2000/svg">
<circle cx="12" cy="12" r="12" fill="#E31243"/>
<path d="M16.52 14.512C16.52 15.12 16.4027 15.648 16.168 16.096C15.9333 16.544 15.6187 16.9173 15.224 17.216C14.8293 17.5147 14.3707 17.7387 13.848 17.888C13.3253 18.0373 12.776 18.112 12.2 18.112C11.624 18.112 11.0747 18.0373 10.552 17.888C10.04 17.7387 9.58133 17.5147 9.176 17.216C8.78133 16.9173 8.46667 16.544 8.232 16.096C7.99733 15.648 7.88 15.12 7.88 14.512V10.368C7.88 9.76 8.008 9.23733 8.264 8.8C8.52 8.36267 8.85067 8 9.256 7.712C9.672 7.424 10.136 7.21067 10.648 7.072C11.16 6.93333 11.6773 6.864 12.2 6.864C12.7227 6.864 13.24 6.93867 13.752 7.088C14.2747 7.23733 14.7387 7.46133 15.144 7.76C15.56 8.048 15.8907 8.416 16.136 8.864C16.392 9.312 16.52 9.84 16.52 10.448V14.512ZM13.96 10.928C13.96 10.608 13.9067 10.3413 13.8 10.128C13.6933 9.904 13.5547 9.728 13.384 9.6C13.224 9.46133 13.0373 9.36 12.824 9.296C12.6107 9.232 12.4027 9.2 12.2 9.2C11.9867 9.2 11.7733 9.232 11.56 9.296C11.3573 9.36 11.1707 9.46133 11 9.6C10.8293 9.728 10.6907 9.904 10.584 10.128C10.4773 10.3413 10.424 10.608 10.424 10.928V14.048C10.424 14.368 10.4773 14.64 10.584 14.864C10.6907 15.0773 10.8293 15.2533 11 15.392C11.1707 15.52 11.3573 15.616 11.56 15.68C11.7733 15.744 11.9867 15.776 12.2 15.776C12.4027 15.776 12.6107 15.744 12.824 15.68C13.0373 15.616 13.224 15.52 13.384 15.392C13.5547 15.2533 13.6933 15.0773 13.8 14.864C13.9067 14.64 13.96 14.368 13.96 14.048V10.928Z" fill="white"/>
</svg>
