<svg width="15" height="14" viewBox="0 0 15 14" fill="none" xmlns="http://www.w3.org/2000/svg">
<path d="M7.5 12.6C4.413 12.6 1.9 10.087 1.9 7C1.9 3.913 4.413 1.4 7.5 1.4C10.587 1.4 13.1 3.913 13.1 7C13.1 10.087 10.587 12.6 7.5 12.6ZM7.5 0C6.58075 0 5.67049 0.18106 4.82122 0.532843C3.97194 0.884626 3.20026 1.40024 2.55025 2.05025C1.2375 3.36301 0.5 5.14348 0.5 7C0.5 8.85651 1.2375 10.637 2.55025 11.9497C3.20026 12.5998 3.97194 13.1154 4.82122 13.4672C5.67049 13.8189 6.58075 14 7.5 14C9.35651 14 11.137 13.2625 12.4497 11.9497C13.7625 10.637 14.5 8.85651 14.5 7C14.5 6.08075 14.3189 5.17049 13.9672 4.32122C13.6154 3.47194 13.0998 2.70026 12.4497 2.05025C11.7997 1.40024 11.0281 0.884626 10.1788 0.532843C9.3295 0.18106 8.41925 0 7.5 0ZM8.2 3.5H6.8V6.3H4V7.7H6.8V10.5H8.2V7.7H11V6.3H8.2V3.5Z" fill="#E31243"/>
</svg>
